<?xml version="1.0" encoding="utf-8"?>
<!-- Generator: Adobe Illustrator 17.0.0, SVG Export Plug-In . SVG Version: 6.00 Build 0)  -->
<!DOCTYPE svg PUBLIC "-//W3C//DTD SVG 1.1//EN" "http://www.w3.org/Graphics/SVG/1.1/DTD/svg11.dtd">
<svg version="1.1" id="Layer_1" xmlns="http://www.w3.org/2000/svg" xmlns:xlink="http://www.w3.org/1999/xlink" x="0px" y="0px"
	 width="16px" height="16px" viewBox="0 0 16 16" enable-background="new 0 0 16 16" xml:space="preserve">
<path fill="#FFFFFF" d="M15.603,1.237v13.527c0,0.463-0.376,0.839-0.839,0.839h-3.875V9.714h1.977l0.296-2.295h-2.273V5.955
	c0-0.665,0.185-1.117,1.138-1.117l1.215-0.001V2.784c-0.21-0.028-0.931-0.091-1.771-0.091c-1.752,0-2.952,1.069-2.952,3.034v1.692
	H6.538v2.295h1.981v5.888H1.237c-0.463,0-0.839-0.376-0.839-0.839V1.237c0-0.463,0.376-0.839,0.839-0.839h13.527
	C15.227,0.397,15.603,0.773,15.603,1.237z"/>
</svg>
