<?xml version="1.0" encoding="utf-8"?>
<!-- Generator: Adobe Illustrator 17.0.0, SVG Export Plug-In . SVG Version: 6.00 Build 0)  -->
<!DOCTYPE svg PUBLIC "-//W3C//DTD SVG 1.1//EN" "http://www.w3.org/Graphics/SVG/1.1/DTD/svg11.dtd">
<svg version="1.1" id="Layer_1" xmlns="http://www.w3.org/2000/svg" xmlns:xlink="http://www.w3.org/1999/xlink" x="0px" y="0px"
	 width="16px" height="16px" viewBox="0 0 16 16" enable-background="new 0 0 16 16" xml:space="preserve">
<g>
	<path fill="#FFFFFF" d="M0.224,7.752C0.266,5.203,2.61,2.971,5.159,3.056C6.38,2.999,7.528,3.531,8.464,4.277
		C8.064,4.731,7.651,5.168,7.209,5.577C6.085,4.799,4.485,4.577,3.361,5.475c-1.609,1.113-1.682,3.74-0.135,4.937
		c1.505,1.365,4.349,0.687,4.765-1.403c-0.943-0.014-1.888,0-2.83-0.031C5.159,8.416,5.156,7.854,5.159,7.292
		c1.576-0.005,3.151-0.007,4.73,0.005c0.094,1.323-0.08,2.731-0.893,3.825c-1.231,1.732-3.702,2.237-5.63,1.495
		C1.431,11.88,0.061,9.836,0.224,7.752z"/>
	<path fill="#FFFFFF" d="M12.962,5.872c0.468,0,0.936,0,1.406,0c0.002,0.47,0.005,0.943,0.009,1.413
		c0.47,0.005,0.943,0.005,1.413,0.009c0,0.468,0,0.938,0,1.406c-0.47,0.005-0.94,0.007-1.413,0.012
		c-0.005,0.472-0.007,0.943-0.009,1.413c-0.47,0-0.938,0-1.408,0c-0.005-0.47-0.005-0.94-0.009-1.41
		c-0.47-0.005-0.943-0.009-1.413-0.014c0-0.468,0-0.936,0-1.406c0.47-0.005,0.94-0.007,1.413-0.009
		C12.952,6.812,12.957,6.342,12.962,5.872z"/>
</g>
</svg>
