<?xml version="1.0" encoding="utf-8"?>
<!-- Generator: Adobe Illustrator 21.0.0, SVG Export Plug-In . SVG Version: 6.00 Build 0)  -->
<svg version="1.1" id="Layer_2" xmlns="http://www.w3.org/2000/svg" xmlns:xlink="http://www.w3.org/1999/xlink" x="0px" y="0px"
	 viewBox="0 0 16 16" style="enable-background:new 0 0 16 16;" xml:space="preserve">
<style type="text/css">
	.st0{fill:#FFFFFF;}
</style>
<path class="st0" d="M14.1,0H1.9C0.9,0,0,0.8,0,1.9v12.2c0,1,0.9,1.9,1.9,1.9h12.2c1.1,0,1.9-0.8,1.9-1.9V1.9C16,0.8,15.1,0,14.1,0z
	 M11.1,2.3c0-0.2,0.2-0.4,0.4-0.4h2.2c0.2,0,0.4,0.2,0.4,0.4v2.2c0,0.2-0.2,0.4-0.4,0.4h-2.2c-0.2,0-0.4-0.2-0.4-0.4V2.3z M8,4.9
	c1.7,0,3.1,1.4,3.1,3.1S9.7,11.1,8,11.1S4.9,9.7,4.9,8S6.3,4.9,8,4.9z M14.2,13.7c0,0.2-0.2,0.4-0.4,0.4H2.3c-0.2,0-0.4-0.2-0.4-0.4
	v-7h1.5C3.2,7.1,3.2,7.6,3.2,8c0,2.7,2.2,4.9,4.9,4.9S13,10.7,13,8c0-0.4-0.1-0.9-0.2-1.3h1.5v7H14.2z"/>
</svg>
