<?xml version="1.0" encoding="utf-8"?>
<!-- Generator: Adobe Illustrator 17.0.0, SVG Export Plug-In . SVG Version: 6.00 Build 0)  -->
<!DOCTYPE svg PUBLIC "-//W3C//DTD SVG 1.1//EN" "http://www.w3.org/Graphics/SVG/1.1/DTD/svg11.dtd">
<svg version="1.1" id="Layer_1" xmlns="http://www.w3.org/2000/svg" xmlns:xlink="http://www.w3.org/1999/xlink" x="0px" y="0px"
	 width="16px" height="16px" viewBox="0 0 16 16" enable-background="new 0 0 16 16" xml:space="preserve">
<path fill="#FFFFFF" d="M5.144,14.257c5.811,0,8.988-4.814,8.988-8.988c0-0.137-0.003-0.273-0.009-0.408
	c0.617-0.446,1.153-1.002,1.576-1.636c-0.566,0.251-1.175,0.421-1.814,0.497c0.652-0.391,1.153-1.01,1.389-1.748
	c-0.611,0.362-1.286,0.625-2.006,0.767c-0.576-0.614-1.397-0.998-2.306-0.998c-1.745,0-3.16,1.415-3.16,3.159
	c0,0.248,0.028,0.489,0.082,0.72C5.259,5.49,2.931,4.233,1.373,2.322C1.101,2.788,0.945,3.331,0.945,3.909
	c0,1.096,0.558,2.064,1.406,2.63C1.833,6.523,1.346,6.381,0.92,6.144C0.919,6.157,0.919,6.17,0.919,6.184
	c0,1.53,1.089,2.807,2.534,3.097C3.188,9.353,2.909,9.392,2.621,9.392c-0.204,0-0.401-0.02-0.594-0.057
	c0.402,1.255,1.568,2.168,2.951,2.194c-1.081,0.847-2.443,1.352-3.924,1.352c-0.255,0-0.506-0.015-0.754-0.044
	C1.699,13.734,3.359,14.257,5.144,14.257"/>
</svg>
